PathFileType	4	(X/Y/Z)	./resultDataOpenSim/trcMotMarkerGrf/sub10/qtm-04-04.trc
DataRate	CameraRate	NumFrames	NumMarkers	Units	OrigDataRate	OrigDataStartFrame	OrigNumFrames
250.000000	250.000000	13	24	m	250.000000	261	520
Frame#	Time	L.Toe.Tip			R.Toe.Tip			L.Ankle.Lat			R.Ankle.Lat			L.Ankle.Med			R.Ankle.Med			L.Heel			R.Heel			L.Knee.Lat			R.Knee.Lat			L.Knee.Med			R.Knee.Med			L.Thigh.Upper			R.Thigh.Upper			L.ASIS			R.ASIS			V.Sacral			L.Acromium			R.Acromium			C7			L.Elbow			R.Elbow			L.Wrist.Lat			R.Wrist.Lat
		X1	Y1	Z1	X2	Y2	Z2	X3	Y3	Z3	X4	Y4	Z4	X5	Y5	Z5	X6	Y6	Z6	X7	Y7	Z7	X8	Y8	Z8	X9	Y9	Z9	X10	Y10	Z10	X11	Y11	Z11	X12	Y12	Z12	X13	Y13	Z13	X14	Y14	Z14	X15	Y15	Z15	X16	Y16	Z16	X17	Y17	Z17	X18	Y18	Z18	X19	Y19	Z19	X20	Y20	Z20	X21	Y21	Z21	X22	Y22	Z22	X23	Y23	Z23	X24	Y24	Z24

261	1.04	0.032905107	-0.032191871	-0.049322424	0.1920775	0.087745903	0.12149939	-0.091407535	0.019178167	-0.10084833	0.06743427	0.15712511	0.10297774	-0.091778887	0.045856629	-0.020849207	0.12309221	0.15904139	0.032129086	-0.16268635	0.0058668081	-0.063677414	0.029410454	0.13893576	0.04358482	-0.0058217855	0.39714632	-0.14169393	0.26424284	0.49145887	0.13089245	-0.010964522	0.37759887	-0.018126418	0.30346374	0.49698677	0.0044886085	0.050221973	0.78819233	-0.20758543	0.046253868	0.82493681	0.17029143	0.1166907	0.89595512	-0.14512029	0.11608245	0.91217431	0.096357665	-0.082468103	0.93010398	-0.021801116	0.092863526	1.375602	-0.17376404	0.046511637	1.3821058	0.1446115	-0.0090303238	1.4085272	-0.034272124	0.023874578	1.0381683	-0.26248923	-0.096623006	1.0655553	0.18370597	0.21398978	0.87795512	-0.25941746	-0.012724179	0.84300737	0.24550125
262	1.044	0.032888176	-0.032242105	-0.049242257	0.21234188	0.086940979	0.1218553	-0.091667561	0.019758017	-0.10042675	0.085508976	0.15243939	0.10306077	-0.091175001	0.046495959	-0.020736147	0.14118892	0.15590615	0.032140248	-0.1626404	0.0068332421	-0.063046702	0.048496376	0.13270399	0.043371488	-0.0056958511	0.39766421	-0.14173983	0.27245667	0.49357968	0.13034111	-0.0097665372	0.37808727	-0.018275622	0.31104152	0.49974238	0.0041710433	0.053094587	0.78856865	-0.20769018	0.05322954	0.82633567	0.17087953	0.12073641	0.89654968	-0.14546962	0.1214501	0.91292026	0.095937354	-0.078315631	0.93013134	-0.020983235	0.097584269	1.3759361	-0.17371884	0.052269318	1.3823349	0.14474545	-0.0037665027	1.4088172	-0.033833684	0.031636326	1.0377471	-0.26227185	-0.092951207	1.0669016	0.18342839	0.22430001	0.88043206	-0.25742952	-0.012241278	0.84351765	0.24560099
263	1.048	0.032866021	-0.032276053	-0.049170629	0.23256605	0.086145719	0.12207041	-0.091972298	0.02037751	-0.09989487	0.10369133	0.14775754	0.10320445	-0.090524531	0.047072537	-0.020607644	0.15936474	0.15282805	0.032143939	-0.16250237	0.0076931703	-0.062412945	0.067575148	0.12670527	0.04315806	-0.0055018031	0.39813838	-0.14173398	0.28054249	0.49548303	0.12976656	-0.0085406113	0.37850797	-0.018405346	0.31852356	0.50224129	0.0038526961	0.056039411	0.78888194	-0.20775252	0.060184486	0.82761468	0.17146343	0.12474305	0.89708422	-0.14581175	0.12682578	0.9135917	0.095558617	-0.074189072	0.93000764	-0.020347036	0.10230765	1.3761735	-0.17368543	0.058040106	1.3824619	0.144872	0.0015286716	1.4090182	-0.033454962	0.039412881	1.0372819	-0.26205909	-0.089100044	1.0681572	0.18308231	0.23460886	0.88291198	-0.25540213	-0.011504735	0.84402531	0.24577016
264	1.052	0.032865904	-0.032278037	-0.049140057	0.25269915	0.085395901	0.12215595	-0.092224591	0.021007616	-0.099365204	0.12194392	0.14311231	0.10340179	-0.089939749	0.047613944	-0.020384012	0.17761571	0.14977843	0.032104732	-0.16231279	0.0084772014	-0.061797516	0.086670317	0.1209647	0.042856782	-0.0052307384	0.39857698	-0.14168147	0.28846842	0.49715425	0.12925749	-0.0073677373	0.37884206	-0.018528265	0.32578499	0.5044732	0.0035758102	0.059136256	0.78915997	-0.20770421	0.067328192	0.82882073	0.17214751	0.12861018	0.89749034	-0.14619381	0.13221118	0.9141829	0.095214598	-0.069981068	0.9297628	-0.019838259	0.10703445	1.3763148	-0.17366449	0.063803037	1.3824809	0.1449953	0.0068356083	1.4091218	-0.033112358	0.04722409	1.0367656	-0.26189355	-0.085082296	1.0693237	0.18265414	0.24493314	0.88539674	-0.25332231	-0.010170381	0.84459774	0.24616484
265	1.056	0.032874103	-0.032263125	-0.049127698	0.27271189	0.084705967	0.12211369	-0.092333428	0.021611033	-0.098974412	0.14026679	0.13853095	0.10354757	-0.089463715	0.048148305	-0.020027212	0.19590592	0.14674434	0.031984937	-0.16212252	0.0092241511	-0.061184452	0.10584031	0.11545895	0.042404414	-0.0048893109	0.39898547	-0.14158601	0.29622227	0.49857651	0.12883295	-0.0063226852	0.3790976	-0.018649984	0.33272223	0.50642811	0.0033802859	0.062372421	0.78940598	-0.20757124	0.074778635	0.82999112	0.17299152	0.13229533	0.89774558	-0.1466434	0.13760768	0.91469157	0.094904825	-0.065572865	0.9294332	-0.019393433	0.11176067	1.3763624	-0.17365327	0.069559352	1.3823935	0.14510707	0.012139012	1.4091226	-0.032793171	0.055088759	1.0361839	-0.26180766	-0.081055296	1.0704161	0.18227368	0.25524338	0.88787567	-0.25121707	-0.0082622368	0.84522157	0.24677272
266	1.06	0.032864063	-0.032244769	-0.049103356	0.2926063	0.084057165	0.12193546	-0.092289453	0.022171156	-0.098741549	0.15869097	0.13401935	0.10350766	-0.089065054	0.048677737	-0.019559229	0.21418863	0.14379906	0.031789286	-0.16195049	0.0099529313	-0.060524254	0.12508059	0.11015894	0.041872037	-0.0044849276	0.39935761	-0.14145036	0.3037982	0.49973923	0.12845807	-0.0054141695	0.37932682	-0.018756006	0.33935177	0.50809884	0.0032729386	0.065661862	0.78959151	-0.20744839	0.082242209	0.83106298	0.17384526	0.13587247	0.89788296	-0.14711775	0.14301964	0.91511825	0.094630354	-0.060850493	0.92905468	-0.018926249	0.11648461	1.3763124	-0.17364654	0.075326046	1.3822054	0.1451994	0.01743558	1.4090148	-0.032491693	0.062993742	1.0355303	-0.26177987	-0.07715877	1.0714434	0.18207437	0.26547632	0.89032836	-0.249143	-0.0061577159	0.84580852	0.2474245
267	1.064	0.032817827	-0.032222587	-0.049054228	0.31241115	0.083409378	0.12160818	-0.092165052	0.022678977	-0.098544553	0.17725686	0.12957585	0.10321107	-0.088704746	0.04918389	-0.01903737	0.23243407	0.14105418	0.031557229	-0.161787	0.010663556	-0.059763865	0.14433853	0.10505738	0.041384156	-0.0040048253	0.39968453	-0.14127271	0.31121134	0.50065052	0.12812253	-0.0045900318	0.37959555	-0.018810499	0.34578372	0.50948386	0.0032328303	0.06895218	0.78968494	-0.2073919	0.089242231	0.83192258	0.17445644	0.13946686	0.897949	-0.14753855	0.14845308	0.91546345	0.094389131	-0.055742848	0.92865479	-0.018288745	0.12121017	1.3761537	-0.17364546	0.081110834	1.3819178	0.14527301	0.022728065	1.4087954	-0.032201982	0.070871188	1.0348072	-0.26171982	-0.073379856	1.0723907	0.1820232	0.27559865	0.89274615	-0.24713194	-0.0042064734	0.84627696	0.24796452
268	1.068	0.032740033	-0.03219027	-0.04899002	0.33215485	0.082730204	0.12111698	-0.092053654	0.023121822	-0.098223967	0.19597272	0.125228	0.10270497	-0.088367034	0.049652558	-0.018506317	0.25062368	0.13855212	0.031323752	-0.16162614	0.011350973	-0.058896573	0.16357739	0.10017427	0.040975613	-0.0034191797	0.39996532	-0.14104806	0.31849883	0.50132354	0.12785512	-0.0037896464	0.37993135	-0.018770838	0.35214065	0.51058683	0.0032323085	0.072256897	0.78967215	-0.20738243	0.095607641	0.83252228	0.17472297	0.14313158	0.89795757	-0.14787294	0.1539112	0.91572533	0.094175956	-0.050286432	0.92824128	-0.017266427	0.12595111	1.3758775	-0.17365888	0.08691107	1.3815268	0.145329	0.028017371	1.408468	-0.031920712	0.078652615	1.034011	-0.26153756	-0.069614127	1.0732332	0.18197256	0.28563271	0.89513981	-0.24516623	-0.0024635071	0.84660734	0.24836587
269	1.072	0.032656387	-0.032149437	-0.048930779	0.35183659	0.082016156	0.12045213	-0.092006311	0.023490885	-0.097703768	0.21477596	0.1210329	0.10213439	-0.088048046	0.05008525	-0.017968279	0.26874084	0.13625805	0.031100667	-0.16148735	0.012012206	-0.057985858	0.18278425	0.095537462	0.040593785	-0.0027020676	0.40020436	-0.14077774	0.32568632	0.50175932	0.12767741	-0.0029637802	0.38031378	-0.018615828	0.3584955	0.51140958	0.0032551954	0.075610783	0.78955752	-0.20737107	0.10157365	0.83290537	0.17475784	0.14683876	0.89789089	-0.14814151	0.1593918	0.91589824	0.093984713	-0.044664562	0.92779437	-0.015689772	0.13072198	1.3754886	-0.17370044	0.092722241	1.3810294	0.14536674	0.033300386	1.4080387	-0.031652247	0.086357205	1.0331383	-0.26125229	-0.065793212	1.0739588	0.18182526	0.29561548	0.89752152	-0.24321387	-0.00078928307	0.84682252	0.24868552
270	1.076	0.032585723	-0.032114063	-0.048879521	0.37142723	0.081288381	0.1196133	-0.092014687	0.023795133	-0.097033585	0.23357582	0.11702286	0.10160897	-0.087738618	0.050482698	-0.017407364	0.28677334	0.13412139	0.030871013	-0.1613944	0.012643391	-0.057108389	0.20194007	0.091160904	0.040192723	-0.0018423434	0.40040235	-0.14047343	0.33277555	0.50195298	0.12757842	-0.0020651835	0.38070521	-0.018365234	0.36485801	0.51194674	0.0033002544	0.079038742	0.78935733	-0.20733179	0.10748161	0.83314219	0.17473724	0.1505447	0.8977244	-0.14837904	0.16489672	0.91597467	0.093809308	-0.039149173	0.92727497	-0.013605989	0.13552019	1.3750038	-0.17378555	0.098534285	1.3804231	0.14539206	0.038574406	1.4075094	-0.031405344	0.094087747	1.0322061	-0.26100274	-0.061918393	1.0745712	0.18159677	0.3055672	0.89989367	-0.2412583	0.00093852648	0.84694929	0.24897669
271	1.08	0.03252266	-0.032098201	-0.048818292	0.390892	0.080588476	0.11860233	-0.092039887	0.024067859	-0.096338201	0.25233331	0.11318376	0.10112547	-0.087429453	0.050835133	-0.016823113	0.30470383	0.13211597	0.030601973	-0.1613394	0.013237019	-0.05626839	0.22100977	0.08704129	0.039772997	-0.00083643468	0.40055388	-0.14014925	0.33976368	0.50190239	0.12753182	-0.0010466854	0.3810719	-0.018062122	0.37121287	0.5121924	0.0033690598	0.082544369	0.78908347	-0.20729505	0.11353297	0.83328277	0.17476555	0.15422351	0.89743697	-0.14861473	0.17043882	0.9159505	0.093642959	-0.033967693	0.92664664	-0.011283507	0.14032893	1.3744415	-0.17391961	0.10433615	1.3797035	0.1454128	0.043841687	1.4068813	-0.031184076	0.10191556	1.0312351	-0.2608984	-0.05801768	1.0750797	0.18137111	0.31549861	0.90225567	-0.23929116	0.0027487809	0.8470016	0.24926244
272	1.084	0.032455437	-0.032103958	-0.048735492	0.41020919	0.079982475	0.11741667	-0.092032905	0.024335642	-0.095717543	0.27103491	0.10950372	0.10065015	-0.087124711	0.051136778	-0.016225508	0.32249539	0.13024442	0.030274018	-0.16129064	0.013785224	-0.055413087	0.23995408	0.083162323	0.039358204	0.00031905064	0.40065358	-0.13981175	0.34665491	0.50160546	0.12751672	0.00013439261	0.38137806	-0.017731916	0.3775547	0.51214934	0.0034559423	0.086101174	0.78872034	-0.20734147	0.11976496	0.83334659	0.17485803	0.15787405	0.89701509	-0.14886271	0.1760296	0.91582817	0.093479977	-0.02921386	0.92589163	-0.0090079265	0.14513833	1.3738064	-0.17408571	0.1101238	1.3788698	0.14543086	0.049105645	1.4061588	-0.030983641	0.1097788	1.0302083	-0.26084878	-0.054108689	1.0754888	0.18122246	0.32541898	0.90460921	-0.23730347	0.0046022497	0.84697587	0.24954419
273	1.088	0.032382176	-0.032125205	-0.048638664	0.42937193	0.079552047	0.11605401	-0.091958205	0.024589452	-0.095189117	0.28961488	0.10600642	0.10018369	-0.086837198	0.051394246	-0.015617816	0.34009468	0.12852066	0.029886681	-0.16123932	0.014286946	-0.05454208	0.2587392	0.07949352	0.038973648	0.0016235872	0.40069949	-0.13945942	0.35345905	0.50105583	0.12752155	0.001506412	0.38157705	-0.017363879	0.38388732	0.51182807	0.0035501814	0.08967196	0.78821918	-0.2075182	0.12612333	0.83332334	0.17498	0.16153518	0.896473	-0.14909747	0.18166852	0.91561342	0.093316728	-0.024863397	0.9250102	-0.006920829	0.14995528	1.3730787	-0.17425405	0.11590047	1.3779264	0.14544559	0.054367089	1.4053446	-0.030794389	0.11756127	1.0290745	-0.26067053	-0.050191485	1.0757966	0.18116476	0.33532401	0.90695421	-0.23529525	0.0064576647	0.84686129	0.24981219
